<svg width="800" height="1000" viewBox="0 0 800 1000" xmlns="http://www.w3.org/2000/svg" role="img" aria-label="Hero portrait illustration">
  <defs>
    <linearGradient id="bg" x1="0%" y1="0%" x2="100%" y2="100%">
      <stop offset="0%" stop-color="#0f0f0f"/>
      <stop offset="100%" stop-color="#151515"/>
    </linearGradient>
    <radialGradient id="light" cx="50%" cy="35%" r="60%">
      <stop offset="0%" stop-color="#ff4d2e" stop-opacity="0.25"/>
      <stop offset="100%" stop-color="#ff4d2e" stop-opacity="0"/>
    </radialGradient>
  </defs>
  <rect width="800" height="1000" rx="60" fill="url(#bg)"/>
  <circle cx="410" cy="300" r="240" fill="#111"/>
  <ellipse cx="420" cy="860" rx="240" ry="48" fill="#ff4d2e" opacity="0.15"/>
  <circle cx="410" cy="300" r="148" fill="#222"/>
  <path d="M320 340 C320 260, 385 210, 450 220 C515 230, 540 320, 530 390 C520 470, 440 510, 360 500 C320 500, 300 430, 320 340 Z" fill="#333"/>
  <path d="M340 390 C350 450, 430 470, 470 430 C510 390, 500 320, 470 290 C440 260, 360 280, 340 345 Z" fill="#ff4d2e" opacity="0.18"/>
  <path d="M255 680 C260 640, 300 620, 330 640 C350 655, 350 690, 330 705 C300 730, 255 720, 255 680 Z" fill="#333" opacity="0.6"/>
  <path d="M500 680 C505 640, 545 620, 575 640 C595 655, 595 690, 575 705 C545 730, 500 720, 500 680 Z" fill="#333" opacity="0.6"/>
  <rect x="180" y="700" width="440" height="90" rx="45" fill="#151515" opacity="0.8"/>
  <text x="400" y="760" text-anchor="middle" fill="#ff4d2e" font-family="DM Sans, sans-serif" font-size="32" font-weight="700">The Value Sage</text>
  <circle cx="660" cy="190" r="42" fill="#ff4d2e" opacity="0.22"/>
  <circle cx="120" cy="160" r="28" fill="#ff4d2e" opacity="0.18"/>
</svg>
